<svg xmlns="http://www.w3.org/2000/svg" xmlns:xlink="http://www.w3.org/1999/xlink" width="500" zoomAndPan="magnify" viewBox="0 0 375 374.999991" height="500" preserveAspectRatio="xMidYMid meet" version="1.0"><path fill="#000000" d="M 348.867188 106.460938 C 346.050781 109.054688 343.003906 111.398438 339.769531 113.476562 C 339.613281 113.582031 339.453125 113.675781 339.296875 113.769531 C 351.503906 137.269531 358.402344 163.960938 358.402344 192.226562 C 358.402344 232.785156 343.949219 272.101562 317.6875 302.941406 C 285.125 341.199219 237.679688 363.128906 187.5 363.128906 C 140.253906 363.128906 94.664062 343.296875 62.425781 308.707031 C 32.878906 276.976562 16.597656 235.609375 16.597656 192.226562 C 16.597656 97.992188 93.265625 21.324219 187.5 21.324219 C 207.175781 21.324219 226.082031 24.664062 243.675781 30.820312 C 243.75 30.640625 243.824219 30.472656 243.90625 30.292969 C 245.515625 26.785156 247.40625 23.457031 249.578125 20.316406 C 230.1875 13.277344 209.285156 9.453125 187.5 9.453125 C 86.722656 9.453125 4.726562 91.449219 4.726562 192.226562 C 4.726562 238.625 22.132812 282.855469 53.75 316.796875 C 88.226562 353.78125 136.976562 375 187.5 375 C 241.164062 375 291.910156 351.542969 326.734375 310.640625 C 354.8125 277.648438 370.273438 235.597656 370.273438 192.226562 C 370.273438 161.25 362.519531 132.046875 348.867188 106.460938 Z M 348.867188 106.460938 " fill-opacity="1" fill-rule="nonzero"/><path fill="#000000" d="M 239.714844 154.242188 C 239.714844 155.953125 239.632812 157.660156 239.464844 159.363281 C 239.296875 161.0625 239.046875 162.753906 238.714844 164.429688 C 238.378906 166.109375 237.964844 167.765625 237.46875 169.402344 C 236.972656 171.039062 236.394531 172.644531 235.742188 174.226562 C 235.085938 175.804688 234.355469 177.351562 233.550781 178.859375 C 232.746094 180.367188 231.867188 181.832031 230.917969 183.253906 C 229.964844 184.675781 228.949219 186.046875 227.863281 187.371094 C 226.777344 188.691406 225.632812 189.957031 224.421875 191.167969 C 223.214844 192.375 221.949219 193.523438 220.625 194.609375 C 219.304688 195.691406 217.933594 196.710938 216.511719 197.660156 C 215.089844 198.609375 213.621094 199.488281 212.113281 200.292969 C 210.605469 201.101562 209.0625 201.832031 207.480469 202.484375 C 205.902344 203.140625 204.292969 203.714844 202.65625 204.210938 C 201.019531 204.707031 199.363281 205.125 197.6875 205.457031 C 196.007812 205.789062 194.320312 206.039062 192.617188 206.207031 C 190.917969 206.375 189.210938 206.460938 187.5 206.460938 C 185.789062 206.460938 184.082031 206.375 182.382812 206.207031 C 180.679688 206.039062 178.992188 205.789062 177.3125 205.457031 C 175.636719 205.125 173.980469 204.707031 172.34375 204.210938 C 170.707031 203.714844 169.097656 203.140625 167.519531 202.484375 C 165.9375 201.832031 164.394531 201.101562 162.886719 200.292969 C 161.378906 199.488281 159.910156 198.609375 158.488281 197.660156 C 157.066406 196.710938 155.695312 195.691406 154.375 194.609375 C 153.050781 193.523438 151.785156 192.375 150.578125 191.167969 C 149.367188 189.957031 148.222656 188.691406 147.136719 187.371094 C 146.050781 186.046875 145.035156 184.675781 144.082031 183.253906 C 143.132812 181.832031 142.253906 180.367188 141.449219 178.859375 C 140.644531 177.351562 139.914062 175.804688 139.257812 174.226562 C 138.605469 172.644531 138.027344 171.039062 137.53125 169.402344 C 137.035156 167.765625 136.621094 166.109375 136.285156 164.429688 C 135.953125 162.753906 135.703125 161.0625 135.535156 159.363281 C 135.367188 157.660156 135.285156 155.953125 135.285156 154.242188 C 135.285156 152.535156 135.367188 150.828125 135.535156 149.125 C 135.703125 147.421875 135.953125 145.734375 136.285156 144.058594 C 136.621094 142.378906 137.035156 140.722656 137.53125 139.085938 C 138.027344 137.449219 138.605469 135.839844 139.257812 134.261719 C 139.914062 132.679688 140.644531 131.136719 141.449219 129.628906 C 142.253906 128.121094 143.132812 126.65625 144.082031 125.234375 C 145.035156 123.8125 146.050781 122.441406 147.136719 121.117188 C 148.222656 119.796875 149.367188 118.53125 150.578125 117.320312 C 151.785156 116.113281 153.050781 114.964844 154.375 113.878906 C 155.695312 112.796875 157.066406 111.777344 158.488281 110.828125 C 159.910156 109.878906 161.378906 109 162.886719 108.191406 C 164.394531 107.386719 165.9375 106.65625 167.519531 106.003906 C 169.097656 105.347656 170.707031 104.773438 172.34375 104.277344 C 173.980469 103.777344 175.636719 103.363281 177.3125 103.03125 C 178.992188 102.695312 180.679688 102.445312 182.382812 102.277344 C 184.082031 102.109375 185.789062 102.027344 187.5 102.027344 C 189.210938 102.027344 190.917969 102.109375 192.617188 102.277344 C 194.320312 102.445312 196.007812 102.695312 197.6875 103.03125 C 199.363281 103.363281 201.019531 103.777344 202.65625 104.277344 C 204.292969 104.773438 205.902344 105.347656 207.480469 106.003906 C 209.0625 106.65625 210.605469 107.386719 212.113281 108.191406 C 213.621094 109 215.089844 109.878906 216.511719 110.828125 C 217.933594 111.777344 219.304688 112.796875 220.625 113.878906 C 221.949219 114.964844 223.214844 116.113281 224.421875 117.320312 C 225.632812 118.53125 226.777344 119.796875 227.863281 121.117188 C 228.949219 122.441406 229.964844 123.8125 230.917969 125.234375 C 231.867188 126.65625 232.746094 128.121094 233.550781 129.628906 C 234.355469 131.136719 235.085938 132.679688 235.742188 134.261719 C 236.394531 135.839844 236.972656 137.449219 237.46875 139.085938 C 237.964844 140.722656 238.378906 142.378906 238.714844 144.058594 C 239.046875 145.734375 239.296875 147.421875 239.464844 149.125 C 239.632812 150.828125 239.714844 152.535156 239.714844 154.242188 Z M 239.714844 154.242188 " fill-opacity="1" fill-rule="nonzero"/><path fill="#000000" d="M 58.128906 275.410156 C 54.746094 281.269531 55.882812 288.664062 60.796875 293.320312 C 93.128906 323.960938 136.785156 342.761719 184.84375 342.761719 C 235.914062 342.761719 282.027344 321.523438 314.832031 287.414062 C 319.464844 282.605469 320.117188 275.210938 316.523438 269.578125 C 297.363281 239.558594 267.886719 216.773438 233.097656 206.207031 C 222.269531 219.664062 204.695312 228.414062 184.851562 228.414062 C 166.113281 228.414062 149.371094 220.609375 138.457031 208.394531 C 104.378906 220.515625 75.933594 244.515625 58.128906 275.410156 Z M 58.128906 275.410156 " fill-opacity="1" fill-rule="nonzero"/><path fill="#000000" d="M 304.097656 115.546875 C 315.558594 115.546875 326.25 112.195312 335.242188 106.40625 C 338.625 104.234375 341.765625 101.722656 344.613281 98.917969 C 355.261719 88.433594 361.871094 73.867188 361.871094 57.773438 C 361.871094 25.914062 335.957031 0 304.097656 0 C 285.074219 0 268.183594 9.234375 257.648438 23.457031 C 255.273438 26.660156 253.226562 30.117188 251.554688 33.78125 C 248.191406 41.09375 246.324219 49.222656 246.324219 57.773438 C 246.324219 89.632812 272.238281 115.546875 304.097656 115.546875 Z M 304.097656 10.503906 C 330.15625 10.503906 351.367188 31.710938 351.367188 57.773438 C 351.367188 70.117188 346.597656 81.386719 338.8125 89.8125 C 336.113281 92.742188 333.035156 95.335938 329.675781 97.5 C 322.289062 102.269531 313.507812 105.042969 304.097656 105.042969 C 278.035156 105.042969 256.828125 83.835938 256.828125 57.773438 C 256.828125 50.734375 258.382812 44.035156 261.15625 38.023438 C 262.835938 34.378906 264.980469 30.988281 267.480469 27.910156 C 276.15625 17.289062 289.347656 10.503906 304.097656 10.503906 Z M 304.097656 10.503906 " fill-opacity="1" fill-rule="nonzero"/><path fill="#000000" d="M 337.183594 48.84375 L 312.5 48.84375 L 312.5 24.160156 L 295.691406 24.160156 L 295.691406 48.84375 L 271.007812 48.84375 L 271.007812 65.652344 L 295.691406 65.652344 L 295.691406 90.335938 L 312.5 90.335938 L 312.5 65.652344 L 337.183594 65.652344 Z M 337.183594 48.84375 " fill-opacity="1" fill-rule="nonzero"/></svg>