<?xml version="1.0" encoding="UTF-8"?>
<svg xmlns="http://www.w3.org/2000/svg" xmlns:xlink="http://www.w3.org/1999/xlink" width="2836" height="2836" viewBox="0 0 2836 2836">

<path fill-rule="evenodd" fill="rgb(0%, 0%, 0%)" fill-opacity="1" d="M 1535.160156 391.769531 C 1914.601562 448.269531 2205.679688 775.421875 2205.679688 1170.578125 C 2205.679688 1605.488281 1853.121094 1958.058594 1418.210938 1958.058594 C 983.296875 1958.058594 630.734375 1605.488281 630.734375 1170.578125 C 630.734375 775.421875 921.8125 448.269531 1301.25 391.769531 L 1333.898438 494.199219 L 1341.820312 519.039062 C 1015.519531 556.890625 762.210938 834.128906 762.210938 1170.578125 C 762.210938 1532.878906 1055.910156 1826.578125 1418.210938 1826.578125 C 1780.5 1826.578125 2074.199219 1532.878906 2074.199219 1170.578125 C 2074.199219 834.128906 1820.890625 556.890625 1494.589844 519.039062 L 1502.511719 494.199219 Z M 1418.210938 673.171875 L 1475.25 494.199219 L 1532.300781 315.21875 L 1304.109375 315.21875 L 1361.160156 494.199219 Z M 1144.648438 2520.363281 L 1691.761719 2520.363281 C 1714.730469 2520.363281 1733.519531 2501.570312 1733.519531 2478.605469 L 1733.519531 2478.601562 C 1733.519531 2455.632812 1714.730469 2436.84375 1691.761719 2436.84375 L 1144.648438 2436.84375 C 1121.679688 2436.84375 1102.890625 2455.632812 1102.890625 2478.601562 L 1102.890625 2478.605469 C 1102.890625 2501.570312 1121.679688 2520.363281 1144.648438 2520.363281 Z M 1624.988281 1965.871094 L 1624.988281 2413.167969 L 1211.421875 2413.167969 L 1211.421875 1965.871094 C 1277.488281 1983.003906 1346.78125 1992.136719 1418.210938 1992.136719 C 1489.628906 1992.136719 1558.921875 1983.003906 1624.988281 1965.871094 Z M 1180.671875 1727.660156 C 1037.289062 1666.441406 922.351562 1551.488281 861.132812 1408.121094 C 1046.019531 1329.789062 1230.898438 1251.460938 1415.75 1173.039062 C 1337.328125 1357.890625 1259 1542.769531 1180.671875 1727.660156 Z M 1655.738281 613.511719 C 1799.121094 674.730469 1914.058594 789.679688 1975.28125 933.050781 C 1790.390625 1011.378906 1605.511719 1089.710938 1420.660156 1168.128906 C 1499.078125 983.28125 1577.410156 798.398438 1655.738281 613.511719 Z M 861.132812 933.050781 C 922.347656 789.671875 1037.300781 674.730469 1180.671875 613.511719 C 1259 798.398438 1337.328125 983.28125 1415.75 1168.128906 C 1230.898438 1089.710938 1046.019531 1011.378906 861.132812 933.050781 Z M 1975.28125 1408.121094 C 1914.058594 1551.5 1799.109375 1666.441406 1655.738281 1727.660156 C 1577.410156 1542.769531 1499.078125 1357.890625 1420.660156 1173.039062 C 1605.511719 1251.460938 1790.390625 1329.789062 1975.28125 1408.121094 Z M 1417.75 1170.578125 L 1417.890625 1170.898438 L 1418.210938 1171.039062 L 1418.53125 1170.898438 L 1418.660156 1170.578125 L 1418.53125 1170.261719 L 1418.210938 1170.128906 L 1417.890625 1170.261719 L 1417.75 1170.578125 "/>
</svg>
